<svg width="160" height="160" viewBox="0 0 160 160" fill="none" xmlns="http://www.w3.org/2000/svg">
<rect width="160" height="160" rx="32" fill="#DA592F"/>
<path fill-rule="evenodd" clip-rule="evenodd" d="M103.283 12.1122C102.712 12.2507 102.32 12.6652 100.966 14.565C95.6865 21.9713 91.9567 30.7506 90.2164 39.8669C89.1979 45.2017 89.169 45.8252 89.169 62.3985C89.169 77.6884 89.1723 77.8269 89.5601 78.6602C90.5276 80.7399 92.2222 81.8076 94.7666 81.9404C96.1219 82.0111 96.3188 82.0647 96.3188 82.362C96.3188 82.5495 96.1125 85.1361 95.8601 88.1103C94.5995 102.972 93.2811 124.594 93.0362 134.427C92.9346 138.507 92.9619 139.331 93.2401 140.575C93.9207 143.617 95.8844 146.382 98.1499 147.488C99.0712 147.938 99.4098 148 100.962 148C102.538 148 102.845 147.942 103.84 147.457C106.517 146.152 108.471 143.049 108.945 139.351C109.358 136.128 107.354 100.902 105.879 85.4841C105.649 83.0804 105.605 77.1062 105.605 48.218C105.604 10.1315 105.692 12.7826 104.41 12.2498C104.052 12.1011 103.735 11.989 103.707 12.0009C103.678 12.0127 103.487 12.0627 103.283 12.1122ZM55.0176 18.2657C54.3727 18.4578 53.4476 19.292 53.2127 19.8936C53.1195 20.1325 52.5456 28.4018 51.9374 38.2697C50.7324 57.8282 50.7357 57.535 51.6808 60.3669C52.7724 63.6383 54.7502 66.1479 57.9047 68.2648C59.5735 69.3847 60.6638 70.563 61.3331 71.97C62.2157 73.8255 62.256 74.687 61.7108 80.0359C60.2559 94.308 58.4438 121.792 58.1244 134.427C58.0211 138.511 58.048 139.33 58.3266 140.575C59.0119 143.638 60.9525 146.373 63.2288 147.485C64.1586 147.939 64.4933 148 66.0481 148C67.5824 148 67.9536 147.934 68.8968 147.495C71.0539 146.49 72.9544 143.918 73.7782 140.89C74.2891 139.012 74.2091 135.393 73.2842 118.543C72.503 104.309 71.4936 90.5459 70.5064 80.659C69.896 74.5459 69.9225 73.8665 70.8479 71.9306C71.5837 70.3913 72.4315 69.4787 74.2642 68.2534C77.9771 65.7712 80.3208 62.2249 81.0274 58.0199C81.329 56.2252 81.3229 56.0754 80.2153 38.199C79.3081 23.5562 79.0431 20.0784 78.7995 19.6097C78.4635 18.9635 77.5249 18.316 76.6813 18.1481C75.5371 17.9206 73.9181 19.0303 73.6131 20.2511C73.555 20.4834 73.8312 27.1321 74.2265 35.0259C74.9116 48.6969 74.9306 49.4083 74.629 50.0126C74.1556 50.9605 73.4269 51.4097 72.3622 51.4097C71.2959 51.4097 70.5655 50.9585 70.1001 50.0126C69.8267 49.4568 69.7517 47.8202 69.495 36.8196C69.1201 20.7503 69.0948 20.274 68.5817 19.5057C68.006 18.6434 66.7099 18.0233 65.778 18.1642C64.7496 18.3197 63.8704 18.9129 63.4477 19.7368C63.1107 20.3939 63.0637 21.3692 62.7159 34.9295C62.5112 42.8992 62.267 49.6184 62.1728 49.8607C61.9847 50.3457 61.3505 50.9718 60.7212 51.2943C59.7794 51.7765 58.2683 51.2922 57.6699 50.3164C57.1988 49.5483 57.2038 49.2819 57.9782 33.957C58.3402 26.7958 58.5866 20.6648 58.5259 20.3326C58.3753 19.507 57.4346 18.4925 56.608 18.2643C55.8271 18.0486 55.7475 18.0486 55.0176 18.2657Z" fill="#F1C677"/>
</svg>
