<svg width="890" height="160" viewBox="0 0 890 160" fill="none" xmlns="http://www.w3.org/2000/svg">
<rect width="160" height="160" rx="32" fill="#DA592F"/>
<path fill-rule="evenodd" clip-rule="evenodd" d="M103.283 12.1122C102.712 12.2507 102.32 12.6652 100.966 14.565C95.6865 21.9713 91.9567 30.7506 90.2164 39.8669C89.1979 45.2017 89.169 45.8252 89.169 62.3985C89.169 77.6884 89.1723 77.8269 89.5601 78.6602C90.5276 80.7399 92.2222 81.8076 94.7666 81.9404C96.1219 82.0111 96.3188 82.0647 96.3188 82.362C96.3188 82.5495 96.1125 85.1361 95.8601 88.1103C94.5995 102.972 93.2811 124.594 93.0362 134.427C92.9346 138.507 92.9619 139.331 93.2401 140.575C93.9207 143.617 95.8844 146.382 98.1499 147.488C99.0712 147.938 99.4098 148 100.962 148C102.538 148 102.845 147.942 103.84 147.457C106.517 146.152 108.471 143.049 108.945 139.351C109.358 136.128 107.354 100.902 105.879 85.4841C105.649 83.0804 105.605 77.1062 105.605 48.218C105.604 10.1315 105.692 12.7826 104.41 12.2498C104.052 12.1011 103.735 11.989 103.707 12.0009C103.678 12.0127 103.487 12.0627 103.283 12.1122ZM55.0176 18.2657C54.3727 18.4578 53.4476 19.292 53.2127 19.8936C53.1195 20.1325 52.5456 28.4018 51.9374 38.2697C50.7324 57.8282 50.7357 57.535 51.6808 60.3669C52.7724 63.6383 54.7502 66.1479 57.9047 68.2648C59.5735 69.3847 60.6638 70.563 61.3331 71.97C62.2157 73.8255 62.256 74.687 61.7108 80.0359C60.2559 94.308 58.4438 121.792 58.1244 134.427C58.0211 138.511 58.048 139.33 58.3266 140.575C59.0119 143.638 60.9525 146.373 63.2288 147.485C64.1586 147.939 64.4933 148 66.0481 148C67.5824 148 67.9536 147.934 68.8968 147.495C71.0539 146.49 72.9544 143.918 73.7782 140.89C74.2891 139.012 74.2091 135.393 73.2842 118.543C72.503 104.309 71.4936 90.5459 70.5064 80.659C69.896 74.5459 69.9225 73.8665 70.8479 71.9306C71.5837 70.3913 72.4315 69.4787 74.2642 68.2534C77.9771 65.7712 80.3208 62.2249 81.0274 58.0199C81.329 56.2252 81.3229 56.0754 80.2153 38.199C79.3081 23.5562 79.0431 20.0784 78.7995 19.6097C78.4635 18.9635 77.5249 18.316 76.6813 18.1481C75.5371 17.9206 73.9181 19.0303 73.6131 20.2511C73.555 20.4834 73.8312 27.1321 74.2265 35.0259C74.9116 48.6969 74.9306 49.4083 74.629 50.0126C74.1556 50.9605 73.4269 51.4097 72.3622 51.4097C71.2959 51.4097 70.5655 50.9585 70.1001 50.0126C69.8267 49.4568 69.7517 47.8202 69.495 36.8196C69.1201 20.7503 69.0948 20.274 68.5817 19.5057C68.006 18.6434 66.7099 18.0233 65.778 18.1642C64.7496 18.3197 63.8704 18.9129 63.4477 19.7368C63.1107 20.3939 63.0637 21.3692 62.7159 34.9295C62.5112 42.8992 62.267 49.6184 62.1728 49.8607C61.9847 50.3457 61.3505 50.9718 60.7212 51.2943C59.7794 51.7765 58.2683 51.2922 57.6699 50.3164C57.1988 49.5483 57.2038 49.2819 57.9782 33.957C58.3402 26.7958 58.5866 20.6648 58.5259 20.3326C58.3753 19.507 57.4346 18.4925 56.608 18.2643C55.8271 18.0486 55.7475 18.0486 55.0176 18.2657Z" fill="#F1C677"/>
<path d="M296.178 27V29.92C293.063 30.3093 290.727 31.1367 289.17 32.402C287.613 33.57 286.542 35.468 285.958 38.096C285.471 40.724 285.228 44.4227 285.228 49.192V130.66C284.06 130.563 282.843 130.514 281.578 130.514C280.41 130.514 279.145 130.563 277.782 130.66L214.418 50.36V106.424C214.418 111.777 214.71 115.914 215.294 118.834C215.878 121.657 217.143 123.701 219.09 124.966C221.134 126.134 224.297 126.961 228.58 127.448V130.368C226.731 130.173 224.297 130.076 221.28 130.076C218.263 129.979 215.44 129.93 212.812 129.93C210.573 129.93 208.286 129.979 205.95 130.076C203.614 130.076 201.667 130.173 200.11 130.368V127.448C203.225 126.961 205.561 126.134 207.118 124.966C208.675 123.798 209.697 121.9 210.184 119.272C210.768 116.547 211.06 112.848 211.06 108.176V42.476C211.06 38.8747 210.768 36.2467 210.184 34.592C209.697 32.84 208.627 31.672 206.972 31.088C205.415 30.4067 203.127 30.0173 200.11 29.92V27C201.667 27.0973 203.614 27.1947 205.95 27.292C208.286 27.3893 210.573 27.438 212.812 27.438C215.148 27.438 217.387 27.3893 219.528 27.292C221.669 27.1947 223.616 27.0973 225.368 27L281.87 96.642V50.944C281.87 45.5907 281.578 41.5027 280.994 38.68C280.41 35.76 279.096 33.6673 277.052 32.402C275.105 31.1367 271.991 30.3093 267.708 29.92V27C269.557 27.0973 271.991 27.1947 275.008 27.292C278.025 27.3893 280.848 27.438 283.476 27.438C285.812 27.438 288.099 27.3893 290.338 27.292C292.674 27.1947 294.621 27.0973 296.178 27Z" fill="#F1C677"/>
<path d="M374.296 53.28V114.454C374.296 118.834 374.977 122.095 376.34 124.236C377.703 126.28 380.136 127.302 383.64 127.302V130.368C380.623 130.076 377.605 129.93 374.588 129.93C370.5 129.93 366.704 130.076 363.2 130.368C359.696 130.66 356.387 131.195 353.272 131.974V118.834C350.936 123.701 347.675 127.205 343.49 129.346C339.402 131.39 334.827 132.412 329.766 132.412C325.678 132.412 322.369 131.877 319.838 130.806C317.307 129.735 315.312 128.373 313.852 126.718C312.197 124.869 311.029 122.435 310.348 119.418C309.667 116.401 309.326 112.507 309.326 107.738V70.8C309.326 66.42 308.645 63.208 307.282 61.164C306.017 59.0227 303.583 57.952 299.982 57.952V54.886C303.097 55.178 306.114 55.324 309.034 55.324C313.122 55.324 316.918 55.178 320.422 54.886C324.023 54.4967 327.333 53.9613 330.35 53.28V113.724C330.35 116.157 330.545 118.299 330.934 120.148C331.421 121.997 332.297 123.457 333.562 124.528C334.827 125.501 336.677 125.988 339.11 125.988C341.738 125.988 344.074 125.258 346.118 123.798C348.259 122.338 349.963 120.343 351.228 117.812C352.591 115.184 353.272 112.264 353.272 109.052V70.8C353.272 66.42 352.591 63.208 351.228 61.164C349.963 59.0227 347.529 57.952 343.928 57.952V54.886C347.043 55.178 350.06 55.324 352.98 55.324C357.068 55.324 360.864 55.178 364.368 54.886C367.969 54.4967 371.279 53.9613 374.296 53.28Z" fill="#F1C677"/>
<path d="M419.037 52.842C423.125 52.842 426.678 53.3773 429.695 54.448C432.81 55.4213 435.048 56.3947 436.411 57.368C439.72 59.6067 441.764 58.1467 442.543 52.988H445.609C445.414 55.7133 445.268 59.0713 445.171 63.062C445.074 66.9553 445.025 72.1627 445.025 78.684H441.959C441.472 75.0827 440.548 71.53 439.185 68.026C437.822 64.522 435.827 61.6507 433.199 59.412C430.668 57.1733 427.359 56.054 423.271 56.054C420.448 56.054 418.064 56.8813 416.117 58.536C414.17 60.0933 413.197 62.3807 413.197 65.398C413.197 68.318 414.073 70.8973 415.825 73.136C417.577 75.2773 419.816 77.37 422.541 79.414C425.364 81.3607 428.284 83.4533 431.301 85.692C434.513 88.1253 437.433 90.5587 440.061 92.992C442.689 95.328 444.782 97.9073 446.339 100.73C447.896 103.553 448.675 106.911 448.675 110.804C448.675 115.184 447.41 119.029 444.879 122.338C442.348 125.55 438.99 128.032 434.805 129.784C430.717 131.536 426.142 132.412 421.081 132.412C418.161 132.412 415.533 132.12 413.197 131.536C410.958 130.952 409.012 130.222 407.357 129.346C406.092 128.762 404.875 128.227 403.707 127.74C402.636 127.156 401.614 126.669 400.641 126.28C399.668 125.988 398.792 126.329 398.013 127.302C397.332 128.275 396.796 129.638 396.407 131.39H393.341C393.536 128.275 393.682 124.479 393.779 120.002C393.876 115.525 393.925 109.587 393.925 102.19H396.991C397.575 107.446 398.646 112.118 400.203 116.206C401.76 120.197 403.853 123.36 406.481 125.696C409.206 127.935 412.613 129.054 416.701 129.054C418.356 129.054 419.962 128.713 421.519 128.032C423.076 127.351 424.342 126.231 425.315 124.674C426.386 123.117 426.921 121.121 426.921 118.688C426.921 114.405 425.51 110.853 422.687 108.03C419.962 105.207 416.458 102.141 412.175 98.832C409.06 96.3013 406.092 93.8193 403.269 91.386C400.544 88.8553 398.305 86.13 396.553 83.21C394.801 80.1927 393.925 76.786 393.925 72.99C393.925 68.61 395.093 64.9113 397.429 61.894C399.765 58.8767 402.831 56.638 406.627 55.178C410.52 53.6207 414.657 52.842 419.037 52.842Z" fill="#F1C677"/>
<path d="M477.716 131.39C473.336 131.39 469.686 130.563 466.766 128.908C463.846 127.253 461.705 125.063 460.342 122.338C458.98 119.515 458.298 116.449 458.298 113.14C458.298 108.955 459.223 105.548 461.072 102.92C463.019 100.292 465.501 98.1507 468.518 96.496C471.536 94.8413 474.699 93.4787 478.008 92.408C481.415 91.3373 484.627 90.3153 487.644 89.342C490.759 88.2713 493.241 87.0547 495.09 85.692C497.037 84.232 498.01 82.3827 498.01 80.144V68.756C498.01 66.2253 497.572 63.9867 496.696 62.04C495.918 59.996 494.652 58.4387 492.9 57.368C491.246 56.2973 489.056 55.762 486.33 55.762C484.384 55.762 482.437 56.054 480.49 56.638C478.544 57.1247 476.938 58.0007 475.672 59.266C478.398 60.2393 480.49 61.748 481.95 63.792C483.508 65.7387 484.286 67.9773 484.286 70.508C484.286 73.8173 483.118 76.4453 480.782 78.392C478.544 80.3387 475.867 81.312 472.752 81.312C469.248 81.312 466.572 80.2413 464.722 78.1C462.97 75.8613 462.094 73.1847 462.094 70.07C462.094 67.2473 462.776 64.9113 464.138 63.062C465.598 61.2127 467.594 59.4607 470.124 57.806C472.85 56.2487 476.11 55.032 479.906 54.156C483.8 53.28 487.985 52.842 492.462 52.842C496.94 52.842 500.979 53.3287 504.58 54.302C508.182 55.178 511.199 56.8327 513.632 59.266C515.871 61.5047 517.331 64.2787 518.012 67.588C518.694 70.8 519.034 74.888 519.034 79.852V119.564C519.034 121.997 519.278 123.701 519.764 124.674C520.251 125.55 521.078 125.988 522.246 125.988C523.122 125.988 523.95 125.745 524.728 125.258C525.604 124.771 526.529 124.187 527.502 123.506L528.962 125.988C526.918 127.74 524.534 129.103 521.808 130.076C519.18 130.952 516.212 131.39 512.902 131.39C509.301 131.39 506.43 130.903 504.288 129.93C502.147 128.859 500.59 127.448 499.616 125.696C498.74 123.944 498.302 121.9 498.302 119.564C495.966 123.263 493.144 126.183 489.834 128.324C486.525 130.368 482.486 131.39 477.716 131.39ZM488.082 122.046C490.029 122.046 491.781 121.608 493.338 120.732C494.993 119.759 496.55 118.201 498.01 116.06V86.13C497.134 87.59 495.918 88.904 494.36 90.072C492.803 91.24 491.148 92.4567 489.396 93.722C487.644 94.89 485.941 96.204 484.286 97.664C482.729 99.124 481.464 100.925 480.49 103.066C479.517 105.207 479.03 107.787 479.03 110.804C479.03 114.6 479.858 117.423 481.512 119.272C483.167 121.121 485.357 122.046 488.082 122.046Z" fill="#F1C677"/>
<path d="M587.447 52.842C591.535 52.842 594.844 53.3773 597.375 54.448C600.003 55.4213 602.047 56.784 603.507 58.536C605.064 60.3853 606.184 62.77 606.865 65.69C607.644 68.61 608.033 72.552 608.033 77.516V116.79C608.033 120.878 608.714 123.652 610.077 125.112C611.537 126.572 613.97 127.302 617.377 127.302V130.368C615.528 130.271 612.754 130.173 609.055 130.076C605.356 129.881 601.706 129.784 598.105 129.784C594.406 129.784 590.756 129.881 587.155 130.076C583.651 130.173 580.974 130.271 579.125 130.368V127.302C582.045 127.302 584.089 126.572 585.257 125.112C586.425 123.652 587.009 120.878 587.009 116.79V71.384C587.009 68.9507 586.766 66.858 586.279 65.106C585.792 63.2567 584.916 61.8453 583.651 60.872C582.386 59.8013 580.488 59.266 577.957 59.266C575.329 59.266 572.896 59.996 570.657 61.456C568.516 62.916 566.764 64.96 565.401 67.588C564.136 70.1187 563.503 72.99 563.503 76.202V116.79C563.503 120.878 564.087 123.652 565.255 125.112C566.52 126.572 568.564 127.302 571.387 127.302V130.368C569.635 130.271 567.056 130.173 563.649 130.076C560.34 129.881 556.884 129.784 553.283 129.784C549.584 129.784 545.788 129.881 541.895 130.076C538.002 130.173 535.082 130.271 533.135 130.368V127.302C536.542 127.302 538.926 126.572 540.289 125.112C541.749 123.652 542.479 120.878 542.479 116.79V70.8C542.479 66.42 541.798 63.208 540.435 61.164C539.17 59.0227 536.736 57.952 533.135 57.952V54.886C536.25 55.178 539.267 55.324 542.187 55.324C546.275 55.324 550.071 55.178 553.575 54.886C557.176 54.4967 560.486 53.9613 563.503 53.28V66.42C565.936 61.456 569.246 57.952 573.431 55.908C577.616 53.864 582.288 52.842 587.447 52.842Z" fill="#F1C677"/>
<path d="M652.455 30.942V54.886H669.683V57.806H652.455V116.79C652.455 119.71 652.99 121.803 654.061 123.068C655.131 124.236 656.737 124.82 658.878 124.82C660.63 124.82 662.383 124.187 664.135 122.922C665.887 121.559 667.444 119.272 668.807 116.06L671.288 117.374C669.731 121.754 667.347 125.355 664.135 128.178C661.02 131.001 656.737 132.412 651.287 132.412C648.075 132.412 645.252 131.974 642.818 131.098C640.385 130.319 638.341 129.103 636.687 127.448C634.545 125.307 633.134 122.679 632.452 119.564C631.771 116.352 631.43 112.215 631.43 107.154V57.806H619.166V54.886H631.43V35.614C635.518 35.614 639.266 35.2733 642.673 34.592C646.177 33.8133 649.437 32.5967 652.455 30.942Z" fill="#F1C677"/>
<path d="M694.293 131.39C689.913 131.39 686.263 130.563 683.343 128.908C680.423 127.253 678.281 125.063 676.919 122.338C675.556 119.515 674.875 116.449 674.875 113.14C674.875 108.955 675.799 105.548 677.649 102.92C679.595 100.292 682.077 98.1507 685.095 96.496C688.112 94.8413 691.275 93.4787 694.585 92.408C697.991 91.3373 701.203 90.3153 704.221 89.342C707.335 88.2713 709.817 87.0547 711.667 85.692C713.613 84.232 714.587 82.3827 714.587 80.144V68.756C714.587 66.2253 714.149 63.9867 713.273 62.04C712.494 59.996 711.229 58.4387 709.477 57.368C707.822 56.2973 705.632 55.762 702.907 55.762C700.96 55.762 699.013 56.054 697.067 56.638C695.12 57.1247 693.514 58.0007 692.249 59.266C694.974 60.2393 697.067 61.748 698.527 63.792C700.084 65.7387 700.863 67.9773 700.863 70.508C700.863 73.8173 699.695 76.4453 697.359 78.392C695.12 80.3387 692.443 81.312 689.329 81.312C685.825 81.312 683.148 80.2413 681.299 78.1C679.547 75.8613 678.671 73.1847 678.671 70.07C678.671 67.2473 679.352 64.9113 680.715 63.062C682.175 61.2127 684.17 59.4607 686.701 57.806C689.426 56.2487 692.687 55.032 696.483 54.156C700.376 53.28 704.561 52.842 709.039 52.842C713.516 52.842 717.555 53.3287 721.157 54.302C724.758 55.178 727.775 56.8327 730.209 59.266C732.447 61.5047 733.907 64.2787 734.589 67.588C735.27 70.8 735.611 74.888 735.611 79.852V119.564C735.611 121.997 735.854 123.701 736.341 124.674C736.827 125.55 737.655 125.988 738.823 125.988C739.699 125.988 740.526 125.745 741.305 125.258C742.181 124.771 743.105 124.187 744.079 123.506L745.539 125.988C743.495 127.74 741.11 129.103 738.385 130.076C735.757 130.952 732.788 131.39 729.479 131.39C725.877 131.39 723.006 130.903 720.865 129.93C718.723 128.859 717.166 127.448 716.193 125.696C715.317 123.944 714.879 121.9 714.879 119.564C712.543 123.263 709.72 126.183 706.411 128.324C703.101 130.368 699.062 131.39 694.293 131.39ZM704.659 122.046C706.605 122.046 708.357 121.608 709.915 120.732C711.569 119.759 713.127 118.201 714.587 116.06V86.13C713.711 87.59 712.494 88.904 710.937 90.072C709.379 91.24 707.725 92.4567 705.973 93.722C704.221 94.89 702.517 96.204 700.863 97.664C699.305 99.124 698.04 100.925 697.067 103.066C696.093 105.207 695.607 107.787 695.607 110.804C695.607 114.6 696.434 117.423 698.089 119.272C699.743 121.121 701.933 122.046 704.659 122.046Z" fill="#F1C677"/>
<path d="M799.935 52.842C803.05 52.842 805.58 53.5233 807.527 54.886C809.474 56.1513 810.885 57.806 811.761 59.85C812.734 61.894 813.221 64.0353 813.221 66.274C813.221 69.8753 812.15 72.844 810.009 75.18C807.965 77.4187 805.24 78.538 801.833 78.538C798.426 78.538 795.75 77.7107 793.803 76.056C791.954 74.304 791.029 72.0167 791.029 69.194C791.029 66.4687 791.613 64.23 792.781 62.478C794.046 60.6287 795.604 59.0713 797.453 57.806C796.09 57.4167 794.728 57.4653 793.365 57.952C791.516 58.244 789.764 59.0227 788.109 60.288C786.454 61.456 785.043 62.9647 783.875 64.814C782.707 66.566 781.782 68.5127 781.101 70.654C780.42 72.698 780.079 74.6933 780.079 76.64V115.33C780.079 120.002 781.198 123.165 783.437 124.82C785.773 126.475 789.228 127.302 793.803 127.302V130.368C791.564 130.271 788.304 130.173 784.021 130.076C779.738 129.881 775.261 129.784 770.589 129.784C766.696 129.784 762.754 129.881 758.763 130.076C754.772 130.173 751.755 130.271 749.711 130.368V127.302C753.118 127.302 755.502 126.572 756.865 125.112C758.325 123.652 759.055 120.878 759.055 116.79V70.8C759.055 66.42 758.374 63.208 757.011 61.164C755.746 59.0227 753.312 57.952 749.711 57.952V54.886C752.826 55.178 755.843 55.324 758.763 55.324C762.851 55.324 766.647 55.178 770.151 54.886C773.752 54.4967 777.062 53.9613 780.079 53.28V66.858C781.247 64.23 782.804 61.8453 784.751 59.704C786.698 57.5627 788.936 55.908 791.467 54.74C793.998 53.4747 796.82 52.842 799.935 52.842Z" fill="#F1C677"/>
<path d="M838.011 131.39C833.631 131.39 829.981 130.563 827.061 128.908C824.141 127.253 822 125.063 820.637 122.338C819.275 119.515 818.593 116.449 818.593 113.14C818.593 108.955 819.518 105.548 821.367 102.92C823.314 100.292 825.796 98.1507 828.813 96.496C831.831 94.8413 834.994 93.4787 838.303 92.408C841.71 91.3373 844.922 90.3153 847.939 89.342C851.054 88.2713 853.536 87.0547 855.385 85.692C857.332 84.232 858.305 82.3827 858.305 80.144V68.756C858.305 66.2253 857.867 63.9867 856.991 62.04C856.213 59.996 854.947 58.4387 853.195 57.368C851.541 56.2973 849.351 55.762 846.625 55.762C844.679 55.762 842.732 56.054 840.785 56.638C838.839 57.1247 837.233 58.0007 835.967 59.266C838.693 60.2393 840.785 61.748 842.245 63.792C843.803 65.7387 844.581 67.9773 844.581 70.508C844.581 73.8173 843.413 76.4453 841.077 78.392C838.839 80.3387 836.162 81.312 833.047 81.312C829.543 81.312 826.867 80.2413 825.017 78.1C823.265 75.8613 822.389 73.1847 822.389 70.07C822.389 67.2473 823.071 64.9113 824.433 63.062C825.893 61.2127 827.889 59.4607 830.419 57.806C833.145 56.2487 836.405 55.032 840.201 54.156C844.095 53.28 848.28 52.842 852.757 52.842C857.235 52.842 861.274 53.3287 864.875 54.302C868.477 55.178 871.494 56.8327 873.927 59.266C876.166 61.5047 877.626 64.2787 878.307 67.588C878.989 70.8 879.329 74.888 879.329 79.852V119.564C879.329 121.997 879.573 123.701 880.059 124.674C880.546 125.55 881.373 125.988 882.541 125.988C883.417 125.988 884.245 125.745 885.023 125.258C885.899 124.771 886.824 124.187 887.797 123.506L889.257 125.988C887.213 127.74 884.829 129.103 882.103 130.076C879.475 130.952 876.507 131.39 873.197 131.39C869.596 131.39 866.725 130.903 864.583 129.93C862.442 128.859 860.885 127.448 859.911 125.696C859.035 123.944 858.597 121.9 858.597 119.564C856.261 123.263 853.439 126.183 850.129 128.324C846.82 130.368 842.781 131.39 838.011 131.39ZM848.377 122.046C850.324 122.046 852.076 121.608 853.633 120.732C855.288 119.759 856.845 118.201 858.305 116.06V86.13C857.429 87.59 856.213 88.904 854.655 90.072C853.098 91.24 851.443 92.4567 849.691 93.722C847.939 94.89 846.236 96.204 844.581 97.664C843.024 99.124 841.759 100.925 840.785 103.066C839.812 105.207 839.325 107.787 839.325 110.804C839.325 114.6 840.153 117.423 841.807 119.272C843.462 121.121 845.652 122.046 848.377 122.046Z" fill="#F1C677"/>
</svg>
